<svg data-v-423bf9ae="" xmlns="http://www.w3.org/2000/svg" viewBox="0 0 556.2176037884262 60" class="font"><!----><!----><!----><g data-v-423bf9ae="" id="353f7a15-ed26-4219-8f3d-67818128c802" fill="white" transform="matrix(5.352363487191075,0,0,5.352363487191075,-8.9919779824059,-42.71186120671017)"><path d="M8.08 8.75L8.08 8.75Q8.15 8.97 8.15 9.27L8.15 9.27L8.15 9.27Q8.15 9.86 7.71 10.12L7.71 10.12L7.71 10.12Q7.27 10.37 6.64 10.37L6.64 10.37L6.64 10.37Q5.25 10.37 4.20 10.14L4.20 10.14L3.61 13.72L3.61 13.72Q4.24 13.79 5.24 13.79L5.24 13.79L6.20 13.55L6.20 13.82L6.20 13.82Q6.20 14.29 5.89 14.55L5.89 14.55L5.89 14.55Q5.59 14.80 5.00 14.80L5.00 14.80L5.00 14.80Q4.28 14.80 3.49 14.60L3.49 14.60L3.49 14.60Q3.09 17.08 3.09 17.79L3.09 17.79L3.09 17.79Q3.09 18.51 3.40 18.90L3.40 18.90L3.40 18.90Q2.90 19.19 2.49 19.19L2.49 19.19L2.49 19.19Q2.07 19.19 1.88 18.97L1.88 18.97L1.88 18.97Q1.68 18.75 1.68 18.24L1.68 18.24L1.68 18.24Q1.68 17.40 1.92 15.67L1.92 15.67L1.92 15.67Q2.16 13.93 2.81 9.84L2.81 9.84L2.45 9.14L2.45 9.14Q3.25 8.67 3.81 8.67L3.81 8.67L3.81 8.67Q4.31 8.67 4.31 9.27L4.31 9.27L4.31 9.27Q5.18 9.24 5.88 9.14L5.88 9.14L5.88 9.14Q6.58 9.04 7.57 8.85L7.57 8.85L8.08 8.75ZM11.62 19.18L11.62 19.18Q10.64 19.18 9.91 18.73L9.91 18.73L9.91 18.73Q9.17 18.27 8.77 17.44L8.77 17.44L8.77 17.44Q8.37 16.60 8.37 15.50L8.37 15.50L8.37 15.50Q8.37 14.01 8.98 12.87L8.98 12.87L8.98 12.87Q9.59 11.72 10.68 11.07L10.68 11.07L10.68 11.07Q11.77 10.43 13.17 10.43L13.17 10.43L13.17 10.43Q13.80 10.43 14.27 10.54L14.27 10.54L14.27 10.54Q14.43 10.75 14.46 11.07L14.46 11.07L14.46 11.07Q12.99 11.07 11.95 11.65L11.95 11.65L11.95 11.65Q10.91 12.22 10.37 13.25L10.37 13.25L10.37 13.25Q9.84 14.28 9.84 15.61L9.84 15.61L9.84 15.61Q9.84 16.88 10.32 17.63L10.32 17.63L10.32 17.63Q10.81 18.37 11.69 18.37L11.69 18.37L11.69 18.37Q12.59 18.37 13.31 17.86L13.31 17.86L13.31 17.86Q14.04 17.35 14.50 16.42L14.50 16.42L14.50 16.42Q14.97 15.48 15.09 14.27L15.09 14.27L15.09 14.27Q14.50 13.87 14.25 13.45L14.25 13.45L14.25 13.45Q13.99 13.02 13.99 12.45L13.99 12.45L13.99 12.45Q13.99 11.98 14.25 11.68L14.25 11.68L14.25 11.68Q14.52 11.38 14.94 11.38L14.94 11.38L14.94 11.38Q15.54 11.38 15.87 11.94L15.87 11.94L15.87 11.94Q16.20 12.50 16.20 13.51L16.20 13.51L16.20 13.51Q16.20 15.06 15.59 16.37L15.59 16.37L15.59 16.37Q14.98 17.67 13.93 18.42L13.93 18.42L13.93 18.42Q12.88 19.18 11.62 19.18L11.62 19.18ZM19.68 19.18L19.68 19.18Q19.29 19.18 19.10 18.94L19.10 18.94L19.10 18.94Q18.90 18.69 18.90 18.16L18.90 18.16L18.90 18.16Q18.90 17.57 19.31 15.51L19.31 15.51L19.31 15.51Q19.73 13.45 20.20 11.70L20.20 11.70L19.61 11.10L19.61 11.10Q20.34 10.49 20.85 10.49L20.85 10.49L20.85 10.49Q21.18 10.49 21.34 10.68L21.34 10.68L21.34 10.68Q21.49 10.88 21.49 11.17L21.49 11.17L21.49 11.17Q21.49 11.62 21.34 12.15L21.34 12.15L21.34 12.15Q21.18 12.68 20.89 13.40L20.89 13.40L21.03 13.47L21.03 13.47Q21.70 11.93 22.43 11.17L22.43 11.17L22.43 11.17Q23.16 10.42 23.81 10.42L23.81 10.42L23.81 10.42Q24.23 10.42 24.43 10.58L24.43 10.58L24.43 10.58Q24.63 10.74 24.63 11.10L24.63 11.10L24.63 11.10Q24.63 11.49 24.29 11.73L24.29 11.73L24.29 11.73Q23.95 11.96 23.44 11.96L23.44 11.96L23.44 11.96Q22.68 11.96 21.94 12.89L21.94 12.89L21.94 12.89Q21.20 13.82 20.73 15.29L20.73 15.29L20.73 15.29Q20.26 16.76 20.26 18.27L20.26 18.27L20.26 18.27Q20.26 18.70 20.40 18.86L20.40 18.86L20.40 18.86Q20.08 19.18 19.68 19.18L19.68 19.18ZM32.14 12.42L32.14 12.42Q32.14 13.86 30.66 14.67L30.66 14.67L30.66 14.67Q29.18 15.48 26.40 15.57L26.40 15.57L26.40 15.88L26.40 15.88Q26.40 17.04 26.84 17.70L26.84 17.70L26.84 17.70Q27.29 18.37 28.06 18.37L28.06 18.37L28.06 18.37Q29.01 18.37 29.62 17.78L29.62 17.78L29.62 17.78Q30.23 17.19 30.28 16.21L30.28 16.21L30.28 16.21Q31.28 16.21 31.28 16.97L31.28 16.97L31.28 16.97Q31.28 17.53 30.84 18.04L30.84 18.04L30.84 18.04Q30.41 18.55 29.64 18.87L29.64 18.87L29.64 18.87Q28.88 19.18 27.96 19.18L27.96 19.18L27.96 19.18Q26.53 19.18 25.73 18.28L25.73 18.28L25.73 18.28Q24.93 17.37 24.93 15.78L24.93 15.78L24.93 15.78Q24.93 14.27 25.58 13.04L25.58 13.04L25.58 13.04Q26.22 11.82 27.36 11.12L27.36 11.12L27.36 11.12Q28.49 10.43 29.89 10.43L29.89 10.43L29.89 10.43Q30.95 10.43 31.55 10.96L31.55 10.96L31.55 10.96Q32.14 11.48 32.14 12.42L32.14 12.42ZM29.71 11.12L29.71 11.12Q28.94 11.12 28.26 11.60L28.26 11.60L28.26 11.60Q27.58 12.08 27.11 12.94L27.11 12.94L27.11 12.94Q26.64 13.79 26.47 14.85L26.47 14.85L26.47 14.85Q28.55 14.84 29.70 14.17L29.70 14.17L29.70 14.17Q30.86 13.50 30.86 12.29L30.86 12.29L30.86 12.29Q30.86 11.76 30.54 11.44L30.54 11.44L30.54 11.44Q30.23 11.12 29.71 11.12L29.71 11.12ZM36.46 19.18L36.46 19.18Q35.20 19.18 34.40 18.82L34.40 18.82L34.40 18.82Q33.60 18.47 33.60 17.82L33.60 17.82L33.60 17.82Q33.60 17.57 33.77 17.35L33.77 17.35L33.77 17.35Q33.94 17.14 34.22 17.00L34.22 17.00L34.22 17.00Q34.55 17.70 35.13 18.07L35.13 18.07L35.13 18.07Q35.71 18.44 36.39 18.44L36.39 18.44L36.39 18.44Q37.53 18.44 38.18 18.02L38.18 18.02L38.18 18.02Q38.82 17.60 38.82 16.80L38.82 16.80L38.82 16.80Q38.82 16.32 38.35 16.04L38.35 16.04L38.35 16.04Q37.87 15.75 36.89 15.41L36.89 15.41L36.89 15.41Q35.99 15.09 35.45 14.83L35.45 14.83L35.45 14.83Q34.90 14.57 34.52 14.13L34.52 14.13L34.52 14.13Q34.13 13.68 34.13 13.01L34.13 13.01L34.13 13.01Q34.13 12.29 34.64 11.70L34.64 11.70L34.64 11.70Q35.14 11.12 36.08 10.77L36.08 10.77L36.08 10.77Q37.02 10.43 38.23 10.43L38.23 10.43L38.23 10.43Q39.27 10.43 39.96 10.73L39.96 10.73L39.96 10.73Q40.64 11.03 40.64 11.51L40.64 11.51L40.64 11.51Q40.64 11.98 40.33 12.23L40.33 12.23L40.33 12.23Q40.03 12.47 39.51 12.47L39.51 12.47L39.51 12.47Q38.47 12.47 38.12 11.19L38.12 11.19L38.12 11.19Q36.85 11.33 36.13 11.79L36.13 11.79L36.13 11.79Q35.42 12.25 35.42 12.87L35.42 12.87L35.42 12.87Q35.42 13.17 35.66 13.41L35.66 13.41L35.66 13.41Q35.91 13.64 36.27 13.79L36.27 13.79L36.27 13.79Q36.62 13.94 37.31 14.20L37.31 14.20L37.31 14.20Q38.18 14.49 38.75 14.76L38.75 14.76L38.75 14.76Q39.31 15.04 39.70 15.48L39.70 15.48L39.70 15.48Q40.10 15.93 40.10 16.59L40.10 16.59L40.10 16.59Q40.10 17.28 39.69 17.87L39.69 17.87L39.69 17.87Q39.28 18.47 38.47 18.82L38.47 18.82L38.47 18.82Q37.65 19.18 36.46 19.18L36.46 19.18ZM47.28 11.34L47.28 11.34Q47.84 11.34 47.84 11.84L47.84 11.84L47.84 11.84Q47.84 12.19 47.61 12.43L47.61 12.43L47.61 12.43Q47.22 12.32 46.41 12.32L46.41 12.32L46.41 12.32Q46.27 12.32 45.96 12.35L45.96 12.35L45.96 12.35Q45.42 14.15 45.12 15.50L45.12 15.50L45.12 15.50Q44.83 16.84 44.84 18.16L44.84 18.16L45.21 18.77L45.21 18.77Q45.00 18.97 44.74 19.08L44.74 19.08L44.74 19.08Q44.48 19.18 44.24 19.18L44.24 19.18L44.24 19.18Q43.89 19.18 43.68 18.96L43.68 18.96L43.68 18.96Q43.47 18.73 43.47 18.13L43.47 18.13L43.47 18.13Q43.47 17.44 43.65 16.61L43.65 16.61L43.65 16.61Q43.82 15.78 44.18 14.29L44.18 14.29L44.18 14.29Q44.49 13.12 44.62 12.56L44.62 12.56L44.62 12.56Q43.97 12.64 43.62 12.64L43.62 12.64L43.62 12.64Q43.05 12.64 43.05 12.15L43.05 12.15L43.05 12.15Q43.05 11.79 43.27 11.54L43.27 11.54L43.27 11.54Q43.67 11.65 44.53 11.65L44.53 11.65L44.53 11.65Q44.72 11.65 44.80 11.63L44.80 11.63L44.80 11.63Q44.90 10.99 44.90 10.64L44.90 10.64L44.90 10.64Q44.90 10.28 44.77 9.49L44.77 9.49L44.77 9.49Q44.94 9.30 45.26 9.18L45.26 9.18L45.26 9.18Q45.58 9.06 45.89 9.06L45.89 9.06L45.89 9.06Q46.24 9.06 46.41 9.23L46.41 9.23L46.41 9.23Q46.58 9.39 46.58 9.77L46.58 9.77L46.58 9.77Q46.58 10.23 46.24 11.44L46.24 11.44L46.24 11.44Q46.83 11.34 47.28 11.34L47.28 11.34ZM56.63 19.18L56.63 19.18Q55.16 19.18 54.21 18.73L54.21 18.73L54.21 18.73Q53.26 18.27 53.26 17.43L53.26 17.43L53.26 17.43Q53.26 17.14 53.42 16.90L53.42 16.90L53.42 16.90Q53.58 16.66 53.84 16.52L53.84 16.52L53.84 16.52Q54.24 17.37 54.97 17.83L54.97 17.83L54.97 17.83Q55.71 18.28 56.56 18.28L56.56 18.28L56.56 18.28Q57.86 18.28 58.64 17.84L58.64 17.84L58.64 17.84Q59.42 17.39 59.42 16.53L59.42 16.53L59.42 16.53Q59.42 16.11 59.12 15.80L59.12 15.80L59.12 15.80Q58.81 15.48 58.36 15.26L58.36 15.26L58.36 15.26Q57.90 15.04 57.11 14.74L57.11 14.74L57.11 14.74Q56.08 14.35 55.45 14.02L55.45 14.02L55.45 14.02Q54.81 13.69 54.36 13.14L54.36 13.14L54.36 13.14Q53.90 12.59 53.90 11.76L53.90 11.76L53.90 11.76Q53.90 10.92 54.50 10.21L54.50 10.21L54.50 10.21Q55.10 9.51 56.22 9.09L56.22 9.09L56.22 9.09Q57.33 8.67 58.80 8.67L58.80 8.67L58.80 8.67Q60.02 8.67 60.82 9.02L60.82 9.02L60.82 9.02Q61.63 9.37 61.63 9.93L61.63 9.93L61.63 9.93Q61.63 10.49 61.27 10.77L61.27 10.77L61.27 10.77Q60.91 11.06 60.30 11.06L60.30 11.06L60.30 11.06Q59.08 11.06 58.67 9.55L58.67 9.55L58.67 9.55Q57.12 9.73 56.26 10.29L56.26 10.29L56.26 10.29Q55.40 10.85 55.40 11.61L55.40 11.61L55.40 11.61Q55.40 12.00 55.69 12.29L55.69 12.29L55.69 12.29Q55.99 12.57 56.42 12.78L56.42 12.78L56.42 12.78Q56.85 12.98 57.64 13.27L57.64 13.27L57.64 13.27Q58.69 13.68 59.34 14.01L59.34 14.01L59.34 14.01Q59.99 14.34 60.45 14.89L60.45 14.89L60.45 14.89Q60.91 15.44 60.91 16.25L60.91 16.25L60.91 16.25Q60.91 17.01 60.45 17.68L60.45 17.68L60.45 17.68Q59.99 18.35 59.03 18.77L59.03 18.77L59.03 18.77Q58.07 19.18 56.63 19.18L56.63 19.18ZM66.46 19.18L66.46 19.18Q64.99 19.18 64.16 18.30L64.16 18.30L64.16 18.30Q63.32 17.42 63.32 15.85L63.32 15.85L63.32 15.85Q63.32 14.34 63.99 13.10L63.99 13.10L63.99 13.10Q64.67 11.86 65.81 11.14L65.81 11.14L65.81 11.14Q66.95 10.43 68.31 10.43L68.31 10.43L68.31 10.43Q69.10 10.43 69.56 10.68L69.56 10.68L69.56 10.68Q70.01 10.93 70.01 11.37L70.01 11.37L70.01 11.37Q70.01 11.75 69.71 12.01L69.71 12.01L69.71 12.01Q69.40 12.26 68.95 12.26L68.95 12.26L68.95 12.26Q67.87 12.26 67.40 11.33L67.40 11.33L67.40 11.33Q66.25 11.84 65.52 13.09L65.52 13.09L65.52 13.09Q64.79 14.34 64.79 15.95L64.79 15.95L64.79 15.95Q64.79 17.08 65.22 17.72L65.22 17.72L65.22 17.72Q65.65 18.37 66.40 18.37L66.40 18.37L66.40 18.37Q67.31 18.37 67.89 17.72L67.89 17.72L67.89 17.72Q68.47 17.08 68.54 16.09L68.54 16.09L68.54 16.09Q69.54 16.09 69.54 16.86L69.54 16.86L69.54 16.86Q69.54 17.47 69.12 18.01L69.12 18.01L69.12 18.01Q68.70 18.55 67.99 18.87L67.99 18.87L67.99 18.87Q67.28 19.18 66.46 19.18L66.46 19.18ZM72.76 19.18L72.76 19.18Q71.97 19.18 71.97 18.37L71.97 18.37L71.97 18.37Q71.97 17.91 72.21 16.56L72.21 16.56L72.21 16.56Q72.45 15.20 72.97 12.53L72.97 12.53L72.97 12.53Q73.11 11.82 73.28 10.95L73.28 10.95L73.28 10.95Q73.44 10.08 73.63 9.07L73.63 9.07L73.05 8.47L73.05 8.47Q73.32 8.25 73.70 8.11L73.70 8.11L73.70 8.11Q74.09 7.98 74.41 7.98L74.41 7.98L74.41 7.98Q74.75 7.98 74.89 8.14L74.89 8.14L74.89 8.14Q75.03 8.30 75.03 8.69L75.03 8.69L75.03 8.69Q75.03 8.95 74.94 9.35L74.94 9.35L74.94 9.35Q74.86 9.74 74.66 10.56L74.66 10.56L74.66 10.56Q74.28 12.10 74.10 12.98L74.10 12.98L74.24 13.05L74.24 13.05Q75.00 11.68 76.01 11.05L76.01 11.05L76.01 11.05Q77.01 10.43 78.01 10.43L78.01 10.43L78.01 10.43Q78.93 10.43 79.38 10.89L79.38 10.89L79.38 10.89Q79.83 11.35 79.83 12.33L79.83 12.33L79.83 12.33Q79.83 12.91 79.70 13.53L79.70 13.53L79.70 13.53Q79.58 14.15 79.34 15.09L79.34 15.09L79.34 15.09Q79.06 16.25 78.93 16.92L78.93 16.92L78.93 16.92Q78.81 17.58 78.81 18.27L78.81 18.27L78.81 18.27Q78.81 18.68 78.96 18.86L78.96 18.86L78.96 18.86Q78.62 19.18 78.23 19.18L78.23 19.18L78.23 19.18Q77.83 19.18 77.64 18.98L77.64 18.98L77.64 18.98Q77.46 18.77 77.46 18.37L77.46 18.37L77.46 18.37Q77.46 17.84 77.57 17.19L77.57 17.19L77.57 17.19Q77.69 16.53 77.92 15.34L77.92 15.34L77.92 15.34Q78.13 14.35 78.25 13.72L78.25 13.72L78.25 13.72Q78.36 13.09 78.36 12.64L78.36 12.64L78.36 12.64Q78.36 11.37 77.41 11.37L77.41 11.37L77.41 11.37Q76.48 11.37 75.53 12.26L75.53 12.26L75.53 12.26Q74.58 13.16 73.95 14.74L73.95 14.74L73.95 14.74Q73.33 16.32 73.33 18.27L73.33 18.27L73.33 18.27Q73.33 18.70 73.47 18.86L73.47 18.86L73.47 18.86Q73.15 19.18 72.76 19.18L72.76 19.18ZM85.47 19.18L85.47 19.18Q84.49 19.18 83.76 18.73L83.76 18.73L83.76 18.73Q83.02 18.27 82.62 17.44L82.62 17.44L82.62 17.44Q82.22 16.60 82.22 15.50L82.22 15.50L82.22 15.50Q82.22 14.01 82.83 12.87L82.83 12.87L82.83 12.87Q83.44 11.72 84.53 11.07L84.53 11.07L84.53 11.07Q85.62 10.43 87.02 10.43L87.02 10.43L87.02 10.43Q87.65 10.43 88.12 10.54L88.12 10.54L88.12 10.54Q88.28 10.75 88.31 11.07L88.31 11.07L88.31 11.07Q86.84 11.07 85.80 11.65L85.80 11.65L85.80 11.65Q84.76 12.22 84.22 13.25L84.22 13.25L84.22 13.25Q83.69 14.28 83.69 15.61L83.69 15.61L83.69 15.61Q83.69 16.88 84.17 17.63L84.17 17.63L84.17 17.63Q84.66 18.37 85.54 18.37L85.54 18.37L85.54 18.37Q86.44 18.37 87.16 17.86L87.16 17.86L87.16 17.86Q87.89 17.35 88.35 16.42L88.35 16.42L88.35 16.42Q88.82 15.48 88.94 14.27L88.94 14.27L88.94 14.27Q88.35 13.87 88.09 13.45L88.09 13.45L88.09 13.45Q87.84 13.02 87.84 12.45L87.84 12.45L87.84 12.45Q87.84 11.98 88.10 11.68L88.10 11.68L88.10 11.68Q88.37 11.38 88.79 11.38L88.79 11.38L88.79 11.38Q89.39 11.38 89.72 11.94L89.72 11.94L89.72 11.94Q90.05 12.50 90.05 13.51L90.05 13.51L90.05 13.51Q90.05 15.06 89.44 16.37L89.44 16.37L89.44 16.37Q88.83 17.67 87.78 18.42L87.78 18.42L87.78 18.42Q86.73 19.18 85.47 19.18L85.47 19.18ZM95.65 19.18L95.65 19.18Q94.67 19.18 93.93 18.73L93.93 18.73L93.93 18.73Q93.20 18.27 92.80 17.44L92.80 17.44L92.80 17.44Q92.40 16.60 92.40 15.50L92.40 15.50L92.40 15.50Q92.40 14.01 93.01 12.87L93.01 12.87L93.01 12.87Q93.62 11.72 94.71 11.07L94.71 11.07L94.71 11.07Q95.80 10.43 97.20 10.43L97.20 10.43L97.20 10.43Q97.83 10.43 98.29 10.54L98.29 10.54L98.29 10.54Q98.46 10.75 98.49 11.07L98.49 11.07L98.49 11.07Q97.02 11.07 95.98 11.65L95.98 11.65L95.98 11.65Q94.93 12.22 94.40 13.25L94.40 13.25L94.40 13.25Q93.87 14.28 93.87 15.61L93.87 15.61L93.87 15.61Q93.87 16.88 94.35 17.63L94.35 17.63L94.35 17.63Q94.84 18.37 95.72 18.37L95.72 18.37L95.72 18.37Q96.61 18.37 97.34 17.86L97.34 17.86L97.34 17.86Q98.07 17.35 98.53 16.42L98.53 16.42L98.53 16.42Q98.99 15.48 99.12 14.27L99.12 14.27L99.12 14.27Q98.53 13.87 98.27 13.45L98.27 13.45L98.27 13.45Q98.01 13.02 98.01 12.45L98.01 12.45L98.01 12.45Q98.01 11.98 98.28 11.68L98.28 11.68L98.28 11.68Q98.55 11.38 98.97 11.38L98.97 11.38L98.97 11.38Q99.57 11.38 99.90 11.94L99.90 11.94L99.90 11.94Q100.23 12.50 100.23 13.51L100.23 13.51L100.23 13.51Q100.23 15.06 99.62 16.37L99.62 16.37L99.62 16.37Q99.01 17.67 97.96 18.42L97.96 18.42L97.96 18.42Q96.91 19.18 95.65 19.18L95.65 19.18ZM103.52 19.18L103.52 19.18Q103.19 19.18 103.00 18.96L103.00 18.96L103.00 18.96Q102.82 18.73 102.82 18.30L102.82 18.30L102.82 18.30Q102.82 17.64 103.29 14.53L103.29 14.53L103.29 14.53Q103.77 11.41 104.20 9.07L104.20 9.07L103.63 8.47L103.63 8.47Q103.89 8.25 104.28 8.11L104.28 8.11L104.28 8.11Q104.66 7.98 104.99 7.98L104.99 7.98L104.99 7.98Q105.32 7.98 105.46 8.14L105.46 8.14L105.46 8.14Q105.60 8.30 105.60 8.69L105.60 8.69L105.60 8.69Q105.60 8.96 105.25 10.60L105.25 10.60L105.25 10.60Q104.73 13.19 104.44 14.99L104.44 14.99L104.44 14.99Q104.15 16.79 104.15 18.17L104.15 18.17L104.15 18.17Q104.15 18.34 104.22 18.56L104.22 18.56L104.22 18.56Q104.29 18.77 104.40 18.86L104.40 18.86L104.40 18.86Q104.02 19.18 103.52 19.18L103.52 19.18Z"></path></g><!----><!----></svg>